<?xml version="1.0" encoding="UTF-8"?>
<svg id="Layer_1" xmlns="http://www.w3.org/2000/svg" version="1.1" viewBox="0 0 160 40">
  <!-- Generator: Adobe Illustrator 29.8.2, SVG Export Plug-In . SVG Version: 2.1.1 Build 3)  -->
  <defs>
    <style>
      .st0 {
        fill: #fdfbee;
      }
    </style>
  </defs>
  <path class="st0" d="M49.8,33.7l-1.3-3.3c-.3-.8-1.5-.6-1.5.3v2.7c0,.4-.3.8-.8.8h-7.4c-.4,0-.8-.3-.8-.8V6.6c0-.4.3-.8.8-.8h7.4c.4,0,.8.3.8.8v2.2c0,.9,1.2,1.1,1.5.3l1.1-2.8c0-.3.4-.5.7-.5h8c.6,0,.9.6.7,1.1l-5.7,12.2v.6l6,13.3c.2.5,0,1.1-.7,1.1h-8c-.3,0-.6-.2-.7-.5h0Z"/>
  <path class="st0" d="M83,26.2c-.4,0-.8-.4-.8-.8V9.4c0-2.4,1.6-3.6,4.6-3.6h11.9c.4,0,.8.4.8.8v5.5c0,.4-.4.8-.8.8h-6.4c-.5,0-.9.4-.9.9h0c0,.5.4.8.8.8h6.4c.4,0,.8.4.8.8v5.5c0,.4-.4.8-.8.8h-6.4c-.4,0-.8.4-.8.8v2.8c0,.4-.4.8-.8.8h-7.6,0Z"/>
  <path class="st0" d="M112.3,33.7l-1.3-3.6c-.2-.7-1.2-.7-1.5,0l-1.4,3.6c0,.3-.4.5-.7.5h-6.1c-.5,0-.9-.6-.7-1.1l5.3-13.8v-.6l-4.7-11.8c-.2-.5.2-1.1.7-1.1h7.5c.3,0,.6.2.7.5l1.2,3.5c.2.7,1.2.7,1.5,0l1.2-3.5c0-.3.4-.5.7-.5h5.6c.6,0,.9.6.7,1.1l-4.5,11.6v.6l5.3,14c.2.5-.2,1.1-.7,1.1h-8.2c-.3,0-.6-.2-.7-.5h0Z"/>
  <path class="st0" d="M82.2,33.5v-5.1c0-.3.3-.6.6-.6h8c.3,0,.6.3.6.6v5.1c0,.3-.3.6-.6.6h-8c-.3,0-.6-.3-.6-.6Z"/>
  <path class="st0" d="M64.5,34.2c-3.1,0-4.6-1.2-4.6-3.5V9.4c0-2.4,1.6-3.6,4.6-3.6h11.5c3.1,0,4.6,1.2,4.6,3.6v7.6c0,.4-.4.8-.8.8h-7.6c-.4,0-.8-.4-.8-.8v-3.2c0-.5-.4-.9-.9-.9h-.5c-.5,0-.9.4-.9.9v12.4c0,.5.4.9.9.9h.5c.5,0,.9-.4.9-.9v-5c0-.4.4-.8.8-.8h7.6c.4,0,.8.4.8.8v9.5c0,2.4-1.6,3.5-4.6,3.5h-11.5Z"/>
</svg>